<mxfile host="app.diagrams.net" agent="Mozilla/5.0 (Windows NT 10.0; Win64; x64) AppleWebKit/537.36 (KHTML, like Gecko) Chrome/131.0.0.0 Safari/537.36" version="26.0.5">
  <diagram name="Page-1" id="TzF9Ndzuxw69yjLmOVsG">
    <mxGraphModel dx="1071" dy="540" grid="0" gridSize="10" guides="1" tooltips="1" connect="1" arrows="1" fold="1" page="1" pageScale="1" pageWidth="850" pageHeight="1100" math="0" shadow="0">
      <root>
        <mxCell id="0" />
        <mxCell id="1" parent="0" />
        <mxCell id="X3V75kt09fzPsoOvbDLD-3" style="edgeStyle=orthogonalEdgeStyle;rounded=0;orthogonalLoop=1;jettySize=auto;html=1;entryX=0.5;entryY=0;entryDx=0;entryDy=0;" edge="1" parent="1" source="X3V75kt09fzPsoOvbDLD-1" target="X3V75kt09fzPsoOvbDLD-2">
          <mxGeometry relative="1" as="geometry" />
        </mxCell>
        <mxCell id="X3V75kt09fzPsoOvbDLD-1" value="Mulai" style="rounded=1;whiteSpace=wrap;html=1;" vertex="1" parent="1">
          <mxGeometry x="350" y="60" width="120" height="60" as="geometry" />
        </mxCell>
        <mxCell id="X3V75kt09fzPsoOvbDLD-7" style="edgeStyle=orthogonalEdgeStyle;rounded=0;orthogonalLoop=1;jettySize=auto;html=1;entryX=0.5;entryY=0;entryDx=0;entryDy=0;" edge="1" parent="1" source="X3V75kt09fzPsoOvbDLD-2" target="X3V75kt09fzPsoOvbDLD-6">
          <mxGeometry relative="1" as="geometry" />
        </mxCell>
        <mxCell id="X3V75kt09fzPsoOvbDLD-2" value="Perhitungan Slope &amp;amp; Akumulasi Aliran" style="rounded=0;whiteSpace=wrap;html=1;" vertex="1" parent="1">
          <mxGeometry x="350" y="160" width="120" height="60" as="geometry" />
        </mxCell>
        <mxCell id="X3V75kt09fzPsoOvbDLD-5" style="edgeStyle=orthogonalEdgeStyle;rounded=0;orthogonalLoop=1;jettySize=auto;html=1;entryX=0;entryY=0.5;entryDx=0;entryDy=0;" edge="1" parent="1" source="X3V75kt09fzPsoOvbDLD-4" target="X3V75kt09fzPsoOvbDLD-2">
          <mxGeometry relative="1" as="geometry" />
        </mxCell>
        <mxCell id="X3V75kt09fzPsoOvbDLD-4" value="DEM (SRTM)" style="shape=parallelogram;perimeter=parallelogramPerimeter;whiteSpace=wrap;html=1;fixedSize=1;" vertex="1" parent="1">
          <mxGeometry x="180" y="121" width="120" height="60" as="geometry" />
        </mxCell>
        <mxCell id="X3V75kt09fzPsoOvbDLD-10" value="" style="edgeStyle=orthogonalEdgeStyle;rounded=0;orthogonalLoop=1;jettySize=auto;html=1;" edge="1" parent="1" source="X3V75kt09fzPsoOvbDLD-6" target="X3V75kt09fzPsoOvbDLD-9">
          <mxGeometry relative="1" as="geometry" />
        </mxCell>
        <mxCell id="X3V75kt09fzPsoOvbDLD-6" value="Slope &amp;amp; Akumulasi Aliran IKN" style="shape=parallelogram;perimeter=parallelogramPerimeter;whiteSpace=wrap;html=1;fixedSize=1;" vertex="1" parent="1">
          <mxGeometry x="350" y="250" width="120" height="60" as="geometry" />
        </mxCell>
        <mxCell id="X3V75kt09fzPsoOvbDLD-14" style="edgeStyle=orthogonalEdgeStyle;rounded=0;orthogonalLoop=1;jettySize=auto;html=1;entryX=0.5;entryY=0;entryDx=0;entryDy=0;" edge="1" parent="1" source="X3V75kt09fzPsoOvbDLD-9" target="X3V75kt09fzPsoOvbDLD-13">
          <mxGeometry relative="1" as="geometry" />
        </mxCell>
        <mxCell id="X3V75kt09fzPsoOvbDLD-9" value="Analisis Potensi&lt;div&gt;Banjir&lt;/div&gt;" style="whiteSpace=wrap;html=1;" vertex="1" parent="1">
          <mxGeometry x="350" y="340" width="120" height="60" as="geometry" />
        </mxCell>
        <mxCell id="X3V75kt09fzPsoOvbDLD-12" style="edgeStyle=orthogonalEdgeStyle;rounded=0;orthogonalLoop=1;jettySize=auto;html=1;entryX=0;entryY=0.5;entryDx=0;entryDy=0;" edge="1" parent="1" source="X3V75kt09fzPsoOvbDLD-11" target="X3V75kt09fzPsoOvbDLD-2">
          <mxGeometry relative="1" as="geometry" />
        </mxCell>
        <mxCell id="X3V75kt09fzPsoOvbDLD-11" value="Batas administrasi" style="shape=parallelogram;perimeter=parallelogramPerimeter;whiteSpace=wrap;html=1;fixedSize=1;" vertex="1" parent="1">
          <mxGeometry x="180" y="201" width="120" height="60" as="geometry" />
        </mxCell>
        <mxCell id="X3V75kt09fzPsoOvbDLD-16" style="edgeStyle=orthogonalEdgeStyle;rounded=0;orthogonalLoop=1;jettySize=auto;html=1;entryX=0.5;entryY=0;entryDx=0;entryDy=0;" edge="1" parent="1" source="X3V75kt09fzPsoOvbDLD-13" target="X3V75kt09fzPsoOvbDLD-15">
          <mxGeometry relative="1" as="geometry" />
        </mxCell>
        <mxCell id="X3V75kt09fzPsoOvbDLD-13" value="Wilayah Potensi&lt;div&gt;Banjir&lt;/div&gt;" style="shape=parallelogram;perimeter=parallelogramPerimeter;whiteSpace=wrap;html=1;fixedSize=1;" vertex="1" parent="1">
          <mxGeometry x="350" y="420" width="120" height="60" as="geometry" />
        </mxCell>
        <mxCell id="X3V75kt09fzPsoOvbDLD-15" value="Selesai" style="rounded=1;whiteSpace=wrap;html=1;" vertex="1" parent="1">
          <mxGeometry x="350" y="510" width="120" height="60" as="geometry" />
        </mxCell>
      </root>
    </mxGraphModel>
  </diagram>
</mxfile>
